# 3ds Max Wavefront OBJ Exporter v0.97b - (c)2007 guruware
# File Created: 02.12.2015 11:25:50

mtllib TasmaniaPlaceholder.mtl

#
# object Box001
#

v  -33.0150 21.7162 7.0842
v  -38.1047 21.7301 1.8886
v  -32.4650 21.7301 2.2289
v  -30.3123 21.7162 6.8594
v  -27.6097 21.7301 2.2289
v  -27.6097 21.7162 7.9340
v  -23.1311 21.7301 2.3596
v  -24.9070 21.7162 8.5229
v  -18.4458 21.7301 2.6181
v  -22.2590 21.7162 4.8554
v  -38.2396 21.7301 -2.9848
v  -33.3345 21.7301 -3.2057
v  -27.6097 21.7301 -3.5299
v  -20.7141 21.7301 -3.5299
v  -15.3683 21.7301 -3.0436
v  -42.6954 21.7301 -11.6232
v  -34.7935 21.7301 -9.6779
v  -27.4296 21.7301 -8.7052
v  -20.9572 21.7301 -9.1105
v  -14.4768 21.7301 -11.8664
v  -42.2385 21.7301 -18.1765
v  -34.7125 21.7301 -15.5827
v  -27.6097 21.7301 -14.1237
v  -21.9299 21.7301 -13.9647
v  -16.2681 21.7301 -16.3940
v  -38.4885 41.0870 22.6046
v  -32.9220 41.0870 22.0646
v  -37.3556 42.8482 10.9418
v  -48.9713 41.0798 10.1243
v  -27.3556 41.0870 24.6458
v  -27.3556 43.7945 10.9418
v  -21.7892 41.0870 26.0605
v  -18.1314 43.7945 11.2557
v  -14.6688 41.0870 19.4200
v  -8.4814 41.0798 11.8766
v  -39.1466 43.7945 -2.1124
v  -49.2491 41.0798 -1.5819
v  -27.3556 43.7945 -2.8913
v  -13.1533 42.8482 -2.8913
v  -2.1429 41.0798 -1.7230
v  -42.1516 42.8482 -17.6592
v  -58.4265 41.0798 -22.3320
v  -26.9847 43.7945 -15.3227
v  -13.6541 43.7945 -16.2962
v  -0.3070 41.0798 -22.9162
v  -41.9846 41.0798 -31.8430
v  -57.4855 41.0798 -38.0735
v  -27.3556 41.0798 -28.3383
v  -15.6574 41.0798 -27.9564
v  -3.9963 41.0798 -33.7917
v  -32.9220 32.3805 22.0646
v  -38.4885 32.3805 22.6046
v  -27.3556 32.3805 24.6458
v  -21.7892 32.3805 26.0605
v  -14.6688 32.3805 19.4200
v  -8.4814 32.3805 11.8766
v  -2.1429 32.3805 -1.7230
v  -0.3070 32.3805 -22.9162
v  -3.9963 32.3805 -33.7917
v  -15.6574 32.3805 -27.9564
v  -27.3556 32.3805 -28.3383
v  -41.9846 32.3805 -31.8430
v  -57.4855 32.3805 -38.0735
v  -58.4265 32.3805 -22.3320
v  -49.2491 32.3805 -1.5819
v  -48.9713 32.3805 10.1243
# 66 vertices

vn -0.0001 -1.0000 -0.0029
vn 0.0001 -1.0000 -0.0009
vn 0.0000 -1.0000 -0.0015
vn 0.0003 -1.0000 -0.0028
vn 0.0001 -1.0000 -0.0013
vn 0.0006 -1.0000 -0.0023
vn 0.0001 -1.0000 -0.0011
vn -0.0002 -1.0000 -0.0029
vn -0.0005 -1.0000 -0.0011
vn -0.0064 1.0000 -0.0046
vn 0.0000 -1.0000 -0.0000
vn -0.0493 0.9883 0.1445
vn -0.0536 0.9826 0.1781
vn -0.1032 0.9886 0.1097
vn -0.1871 0.9790 0.0809
vn -0.0537 0.9815 0.1836
vn -0.0394 0.9954 0.0873
vn 0.0310 0.9829 0.1816
vn 0.1120 0.9887 0.1000
vn -0.0038 1.0000 -0.0040
vn 0.2522 0.9553 0.1544
vn -0.1215 0.9924 0.0207
vn -0.2277 0.9737 0.0131
vn 0.0161 0.9997 0.0184
vn 0.1207 0.9925 0.0172
vn 0.1757 0.9841 0.0253
vn -0.0791 0.9945 -0.0681
vn -0.0625 0.9978 -0.0197
vn -0.0164 0.9943 -0.1053
vn 0.0833 0.9951 -0.0536
vn 0.1802 0.9834 -0.0217
vn -0.0106 0.9959 -0.0899
vn 0.0000 1.0000 -0.0000
vn 0.0020 0.9831 -0.1833
vn -0.0559 0.9758 -0.2116
vn 0.0553 0.9908 -0.1232
vn 0.0494 -0.8138 0.5790
vn -0.0871 -0.8249 0.5585
vn -0.1457 -0.4999 0.8538
vn 0.0886 -0.3970 0.9136
vn -0.1721 -0.8302 0.5302
vn -0.2924 -0.4571 0.8400
vn 0.2026 -0.8637 0.4614
vn 0.2199 -0.4371 0.8721
vn 0.4765 -0.8090 0.3441
vn 0.6016 -0.4883 0.6322
vn -0.1679 0.0000 0.9858
vn 0.0965 0.0000 0.9953
vn -0.3349 0.0000 0.9422
vn 0.2482 0.0000 0.9687
vn 0.6820 -0.0000 0.7313
vn 0.3632 -0.7922 0.4905
vn 0.4554 -0.7814 0.4265
vn 0.7570 -0.4326 0.4898
vn 0.7072 -0.4043 0.5801
vn 0.6043 -0.7715 0.1988
vn 0.8796 -0.4148 0.2330
vn 0.5825 -0.8123 -0.0292
vn 0.8862 -0.4469 -0.1225
vn 0.4772 -0.8583 -0.1888
vn 0.8759 -0.3788 -0.2990
vn 0.8464 -0.0000 0.5325
vn 0.7732 -0.0000 0.6342
vn 0.9661 0.0000 0.2583
vn 0.9928 0.0000 -0.1200
vn 0.9470 0.0000 -0.3213
vn -0.2918 -0.6958 -0.6563
vn -0.0815 -0.7756 -0.6259
vn -0.2267 -0.4302 -0.8738
vn -0.4369 -0.2166 -0.8730
vn 0.0702 -0.8015 -0.5939
vn 0.1207 -0.4576 -0.8809
vn 0.1500 -0.7978 -0.5840
vn 0.2830 -0.4341 -0.8552
vn 0.1987 -0.7926 -0.5765
vn 0.3595 -0.2449 -0.9004
vn -0.2140 -0.0000 -0.9768
vn -0.4475 0.0000 -0.8943
vn 0.1335 -0.0000 -0.9911
vn 0.3038 0.0000 -0.9527
vn 0.3729 0.0000 -0.9279
vn -0.5427 -0.8391 -0.0364
vn -0.6272 -0.7514 0.2048
vn -0.8931 -0.4295 0.1341
vn -0.9466 -0.3175 -0.0566
vn -0.6743 -0.7198 0.1651
vn -0.8905 -0.4045 0.2085
vn -0.5968 -0.7778 0.1971
vn -0.8531 -0.3996 0.3356
vn -0.4196 -0.8104 0.4089
vn -0.7082 -0.3693 0.6017
vn -0.9841 0.0000 0.1774
vn -0.9982 0.0000 -0.0597
vn -0.9759 0.0000 0.2183
vn -0.9355 0.0000 0.3534
vn -0.7657 0.0000 0.6432
# 96 vertex normals

vt 1.0000 0.0000 0.0000
vt 1.0000 0.2500 0.0000
vt 0.7500 0.2500 0.0000
vt 0.7500 0.0000 0.0000
vt 0.5000 0.2500 0.0000
vt 0.5000 0.0000 0.0000
vt 0.2500 0.2500 0.0000
vt 0.2500 0.0000 0.0000
vt 0.0000 0.2500 0.0000
vt 0.0000 0.0000 0.0000
vt 1.0000 0.5000 0.0000
vt 0.7500 0.5000 0.0000
vt 0.5000 0.5000 0.0000
vt 0.2500 0.5000 0.0000
vt 0.0000 0.5000 0.0000
vt 1.0000 0.7500 0.0000
vt 0.7500 0.7500 0.0000
vt 0.5000 0.7500 0.0000
vt 0.2500 0.7500 0.0000
vt 0.0000 0.7500 0.0000
vt 1.0000 1.0000 0.0000
vt 0.7500 1.0000 0.0000
vt 0.5000 1.0000 0.0000
vt 0.2500 1.0000 0.0000
vt 0.0000 1.0000 0.0000
# 25 texture coords

g Box001
usemtl wire_153228214
s 2
f 1/1/1 2/2/2 3/3/3 4/4/4 
f 4/4/4 3/3/3 5/5/5 6/6/6 
f 6/6/6 5/5/5 7/7/7 8/8/8 
f 8/8/8 7/7/7 9/9/9 10/10/10 
f 2/2/2 11/11/11 12/12/11 3/3/3 
f 3/3/3 12/12/11 13/13/11 5/5/5 
f 5/5/5 13/13/11 14/14/11 7/7/7 
f 7/7/7 14/14/11 15/15/11 9/9/9 
f 11/11/11 16/16/11 17/17/11 12/12/11 
f 12/12/11 17/17/11 18/18/11 13/13/11 
f 13/13/11 18/18/11 19/19/11 14/14/11 
f 14/14/11 19/19/11 20/20/11 15/15/11 
f 16/16/11 21/21/11 22/22/11 17/17/11 
f 17/17/11 22/22/11 23/23/11 18/18/11 
f 18/18/11 23/23/11 24/24/11 19/19/11 
f 19/19/11 24/24/11 25/25/11 20/20/11 
s 4
f 26/10/12 27/8/13 28/7/14 29/9/15 
f 27/8/13 30/6/16 31/5/17 28/7/14 
f 30/6/16 32/4/18 33/3/19 31/5/17 
f 32/4/18 34/1/20 35/2/21 33/3/19 
f 29/9/15 28/7/14 36/14/22 37/15/23 
f 28/7/14 31/5/17 38/13/24 36/14/22 
f 31/5/17 33/3/19 39/12/25 38/13/24 
f 33/3/19 35/2/21 40/11/26 39/12/25 
f 37/15/23 36/14/22 41/19/27 42/20/28 
f 36/14/22 38/13/24 43/18/29 41/19/27 
f 38/13/24 39/12/25 44/17/30 43/18/29 
f 39/12/25 40/11/26 45/16/31 44/17/30 
f 42/20/28 41/19/27 46/24/32 47/25/33 
f 41/19/27 43/18/29 48/23/34 46/24/32 
f 43/18/29 44/17/30 49/22/35 48/23/34 
f 44/17/30 45/16/31 50/21/36 49/22/35 
s 8
f 1/10/37 4/8/38 51/14/39 52/15/40 
f 4/8/38 6/6/41 53/13/42 51/14/39 
f 6/6/41 8/4/43 54/12/44 53/13/42 
f 8/4/43 10/1/45 55/11/46 54/12/44 
f 52/15/40 51/14/39 27/24/47 26/25/48 
f 51/14/39 53/13/42 30/23/49 27/24/47 
f 53/13/42 54/12/44 32/22/50 30/23/49 
f 54/12/44 55/11/46 34/21/51 32/22/50 
s 16
f 10/10/52 9/8/53 56/14/54 55/15/55 
f 9/8/53 15/6/56 57/13/57 56/14/54 
f 15/6/56 20/4/58 58/12/59 57/13/57 
f 20/4/58 25/1/60 59/11/61 58/12/59 
f 55/15/55 56/14/54 35/24/62 34/25/63 
f 56/14/54 57/13/57 40/23/64 35/24/62 
f 57/13/57 58/12/59 45/22/65 40/23/64 
f 58/12/59 59/11/61 50/21/66 45/22/65 
s 32
f 25/10/67 24/8/68 60/14/69 59/15/70 
f 24/8/68 23/6/71 61/13/72 60/14/69 
f 23/6/71 22/4/73 62/12/74 61/13/72 
f 22/4/73 21/1/75 63/11/76 62/12/74 
f 59/15/70 60/14/69 49/24/77 50/25/78 
f 60/14/69 61/13/72 48/23/79 49/24/77 
f 61/13/72 62/12/74 46/22/80 48/23/79 
f 62/12/74 63/11/76 47/21/81 46/22/80 
s 64
f 21/10/82 16/8/83 64/14/84 63/15/85 
f 16/8/83 11/6/86 65/13/87 64/14/84 
f 11/6/86 2/4/88 66/12/89 65/13/87 
f 2/4/88 1/1/90 52/11/91 66/12/89 
f 63/15/85 64/14/84 42/24/92 47/25/93 
f 64/14/84 65/13/87 37/23/94 42/24/92 
f 65/13/87 66/12/89 29/22/95 37/23/94 
f 66/12/89 52/11/91 26/21/96 29/22/95 
# 64 polygons

